<svg width="87" height="79" viewBox="0 0 87 79" fill="none" xmlns="http://www.w3.org/2000/svg">
<path d="M2.9668 60.6738L8.29297 66.2461L19.4199 66L24.2012 60.9023V59.0215C24.2832 58.541 24.582 58.3008 25.0977 58.3008C25.6719 58.5352 25.959 58.8164 25.959 59.1445V62.0098L20.0703 67.793H7.04492L0.787109 62.1152V6.04102L7.04492 0.363281H20.0703L25.959 6.14648V9.01172C25.959 9.33984 25.6719 9.62109 25.0977 9.85547C24.582 9.85547 24.2832 9.61523 24.2012 9.13477V7.25391L19.4199 2.15625L8.29297 1.91016L2.9668 7.48242V60.6738ZM28.3848 22.6523C30.998 24.375 32.4863 25.2715 32.8496 25.3418C33.2832 25.3418 34.3027 25.2539 35.9082 25.0781L36.207 25.3594V25.5703C35.7031 26.8359 35.0176 27.6855 34.1504 28.1191C33.2363 28.3535 32.4219 28.4707 31.707 28.4707H31.2324C30.1074 27.8262 29.2344 27.5039 28.6133 27.5039H28.5781C28.1914 27.5039 27.8398 27.8379 27.5234 28.5059C28.9297 28.6582 30.459 29.2207 32.1113 30.1934C32.6504 30.4863 33.7637 31.5293 35.4512 33.3223L36.752 34.9746L33.2891 40.9336H32.832C35.375 43.3359 37.1328 44.7539 38.1055 45.1875C38.375 45.4102 39.4238 45.5215 41.252 45.5215L45.6289 45.4688C46.3203 45.4688 47.6211 44.7246 49.5312 43.2363C51.2188 41.4434 52.0625 40.4941 52.0625 40.3887V34.0605C51.3945 32.291 50.0645 31.4062 48.0723 31.4062H47.791C47.3809 31.4062 46.8887 31.459 46.3145 31.5645L45.1543 29.6484V29.4551L50.3047 22.6523C52.3086 24.3047 53.5977 25.1309 54.1719 25.1309L55.4375 25.2188H56.1582L56.5449 25.5176C56.3105 26.7246 55.9473 27.5449 55.4551 27.9785C54.9629 28.4121 53.832 28.6289 52.0625 28.6289L50.9902 27.8906C50.5566 27.5977 50.2051 27.4512 49.9355 27.4512C49.7949 27.4512 49.6133 27.7207 49.3906 28.2598L49.4434 28.1016C50.3809 28.3711 51.3066 28.8164 52.2207 29.4375C53.2988 30.293 53.8379 31.1426 53.8379 31.9863C54.0723 32.9004 54.3242 34.9629 54.5938 38.1738L54.8047 41.6367L49.1445 48.1758H35.873L30.1074 42.1816L32.6562 36.9258H33.0781C32.4219 36.4102 31.5488 35.9941 30.459 35.6777C28.7012 35.2324 26.7148 34.875 24.5 34.6055L23.3223 34.5176H23.2168C21.1309 34.5176 18.8867 35.0039 16.4844 35.9766C15.8516 36.3047 15.5059 36.4863 15.4473 36.5215L15.7637 42.3047C17.8613 42.4453 18.9102 42.6504 18.9102 42.9199L19.2793 46.8047L17.9609 48.3691C15.4297 46.377 13.9062 45.1406 13.3906 44.6602V39.5801L13.3555 35.0273C16.1797 33.5977 18.0312 32.8184 18.9102 32.6895C21.1719 32.2207 22.877 31.9863 24.0254 31.9863L24.0605 31.9512H24.3418L32.0234 33.1641C31.4961 32.5898 30.9746 32.1973 30.459 31.9863C29.3105 31.2715 28.2793 30.9141 27.3652 30.9141C26.8613 30.9141 25.9766 31.0312 24.7109 31.2656L23.0938 30.1055V29.7891C26.2812 25.3125 28.0449 22.9336 28.3848 22.6523ZM48.3887 66.1855C49.6777 66.1855 50.5273 66.8828 50.9375 68.2773C50.9961 68.5586 51.0254 68.834 51.0254 69.1035C51.0254 69.9941 50.7559 71.916 50.2168 74.8691C49.9004 75.9355 49.5488 76.8613 49.1621 77.6465L48.3711 78.9297C47.9492 78.3555 47.5156 77.5586 47.0703 76.5391C47.6211 74.9805 47.8965 74.1602 47.8965 74.0781L48.2129 70.8789L48.8105 70.5801H48.5117C47.3398 70.5801 46.5781 70.1348 46.2266 69.2441C46.1094 68.9395 46.0449 68.6465 46.0332 68.3652C46.0332 67.5566 46.4727 66.9062 47.3516 66.4141C47.6914 66.2617 48.0371 66.1855 48.3887 66.1855ZM73.0859 24.1289H74.1934C72.7871 24.1289 71.5625 23.7129 70.5195 22.8809C69.875 22.2246 69.5527 21.5332 69.5527 20.8066C69.5527 19.7402 70.0449 18.9727 71.0293 18.5039L71.9258 18.3633C72.957 18.3633 73.6719 18.9375 74.0703 20.0859L74.1055 20.4023C74.1055 20.8594 74.0117 21.2109 73.8242 21.457C74.3516 21.6562 74.9023 21.7559 75.4766 21.7559H75.5117C76.8711 21.7559 78.2305 21.293 79.5898 20.3672C80.8438 19.1719 81.6582 18.1465 82.0332 17.291C82.6309 16.0488 82.9297 15.2578 82.9297 14.918L82.8066 13.3184C83.4629 12.7559 84.0488 12.4746 84.5645 12.4746L84.6348 13.8633V13.8984C84.6348 16.6641 83.4805 19.1895 81.1719 21.4746C80.0586 22.5762 78.9629 23.2676 77.8848 23.5488C78.002 23.584 78.9043 24.0176 80.5918 24.8496C84.5176 27.1465 86.4805 29.2734 86.4805 31.2305C86.4805 32.3906 85.9941 33.4688 85.0215 34.4648C84.0957 35.2148 83.0059 35.5898 81.752 35.5898C80.9082 35.5195 80.0176 35.1328 79.0801 34.4297C78.6348 33.8906 78.4121 33.3281 78.4121 32.7422V32.6543C78.4121 32.2324 78.5996 31.9102 78.9746 31.6875L79.7832 30.8789H80.1875C81.2656 31.5938 81.9453 31.9512 82.2266 31.9512C82.6719 31.9512 83.0059 31.6465 83.2285 31.0371L83.2461 30.9668C83.2461 30.0762 82.1152 28.8984 79.8535 27.4336C78.9512 26.8594 77.3047 26.1094 74.9141 25.1836C73.4023 25.5469 71.0176 26.8477 67.7598 29.0859C67.9824 29.4844 69.4238 31.4414 72.084 34.957V35.3613C71.4395 35.6426 70.4375 36.5156 69.0781 37.9805C68.4219 38.707 67.7949 39.4805 67.1973 40.3008C69.4004 42.7148 70.625 43.9219 70.8711 43.9219C71.5039 43.9219 73.1914 42.6035 75.9336 39.9668H76.373C79.5254 42.7441 81.2832 44.2031 81.6465 44.3438C82.0332 44.3438 82.9531 42.9668 84.4062 40.2129C84.1719 39.5918 84.0547 39.0879 84.0547 38.7012C84.0547 38.3145 84.3418 37.9277 84.916 37.541C85.9355 37.541 86.498 38.127 86.6035 39.2988L86.6738 40.3711L80.8379 48.5449L74.5625 44.0098H74.8262L69.2539 48.5273C66.4414 45.7852 64.2148 43.5879 62.5742 41.9355C66.7109 38.0332 68.7793 35.959 68.7793 35.7129L63.0664 30.0703C67.6836 27.1523 71.0234 25.1719 73.0859 24.1289Z" fill="white"/>
</svg>
